<svg width="33" height="34" viewBox="0 0 33 34" fill="none" xmlns="http://www.w3.org/2000/svg">
<path d="M28.8248 13.8757L28.8262 13.877C29.0762 14.1083 29.2758 14.3888 29.4125 14.7007C29.5492 15.0127 29.62 15.3496 29.6205 15.6902V27.9684C29.6205 28.6225 29.3607 29.2498 28.8982 29.7123C28.4357 30.1748 27.8084 30.4346 27.1543 30.4346H20.7793C20.1252 30.4346 19.4979 30.1748 19.0354 29.7123C18.5729 29.2498 18.313 28.6225 18.313 27.9684V22.1246V21.9346H18.123H14.9355H14.7455V22.1246V27.9684C14.7455 28.6225 14.4857 29.2498 14.0232 29.7123C13.5607 30.1748 12.9334 30.4346 12.2793 30.4346H5.9043C5.25021 30.4346 4.62291 30.1748 4.16039 29.7123C3.69788 29.2498 3.43805 28.6225 3.43805 27.9684V15.69C3.43861 15.3495 3.50943 15.0127 3.6461 14.7007C3.78278 14.3888 3.98237 14.1083 4.23239 13.877L4.2324 13.877L4.2338 13.8757L14.8472 3.85453L14.8673 3.83673L14.8674 3.83675L14.8699 3.83442C15.3229 3.4199 15.9146 3.19 16.5286 3.19C17.1423 3.19 17.7336 3.41961 18.1865 3.83363C18.1868 3.8339 18.1871 3.83416 18.1874 3.83442L18.2065 3.85234L18.2069 3.85279L28.8248 13.8757ZM26.623 27.6271H26.813V27.4371V15.9196V15.8377L26.7535 15.7815L16.6597 6.25219L16.5293 6.12906L16.3989 6.25219L6.30511 15.7815L6.24555 15.8377V15.9196V27.4371V27.6271H6.43555H11.748H11.938V27.4371V21.5934C11.938 20.9393 12.1979 20.312 12.6604 19.8495C13.1229 19.387 13.7502 19.1271 14.4043 19.1271H18.6543C18.9782 19.1271 19.2989 19.1909 19.5981 19.3149C19.8973 19.4388 20.1692 19.6205 20.3982 19.8495C20.6272 20.0785 20.8089 20.3504 20.9328 20.6496C21.0568 20.9488 21.1205 21.2695 21.1205 21.5934V27.4371V27.6271H21.3105H26.623Z" fill="#0F2664" stroke="#F6FAFF" stroke-width="0.38"/>
</svg>
