<svg width="34" height="35" viewBox="0 0 34 35" fill="none" xmlns="http://www.w3.org/2000/svg">
<path d="M23.5 32.0003C24.2797 32.0025 25.0449 31.7902 25.712 31.3866C26.3791 30.983 26.9222 30.4037 27.2821 29.712C27.642 29.0204 27.8047 28.2431 27.7524 27.4651C27.7 26.6872 27.4347 25.9387 26.9855 25.3015C26.5362 24.6643 25.9204 24.1629 25.2053 23.8522C24.4901 23.5416 23.7034 23.4337 22.931 23.5402C22.1587 23.6468 21.4305 23.9638 20.8262 24.4565C20.222 24.9492 19.7649 25.5986 19.505 26.3337H12.365L15.1842 21.9987C16.002 22.1116 16.8314 22.1116 17.6492 21.9987L19.0942 24.2087C19.6892 23.5003 20.4542 22.877 21.375 22.5087L20.5108 21.1912C22.2454 20.4049 23.7169 19.1358 24.7494 17.5355C25.7819 15.9352 26.3318 14.0715 26.3333 12.167H6.5C6.50275 14.073 7.05473 15.9379 8.08987 17.5383C9.125 19.1387 10.5994 20.407 12.3367 21.1912L6.74083 29.8045C6.56888 30.1175 6.52148 30.4839 6.60813 30.8303C6.69478 31.1768 6.90909 31.4778 7.20815 31.6729C7.50721 31.8681 7.86897 31.9432 8.221 31.8831C8.57302 31.8229 8.88935 31.6321 9.10667 31.3487L10.5233 29.167H19.505C19.7973 29.9937 20.3381 30.7097 21.0533 31.217C21.7685 31.7242 22.6232 31.9979 23.5 32.0003ZM23.5 26.3337C23.8757 26.3337 24.2361 26.4829 24.5017 26.7486C24.7674 27.0143 24.9167 27.3746 24.9167 27.7503C24.9167 28.5295 24.2792 29.167 23.5 29.167C22.7208 29.167 22.0833 28.5295 22.0833 27.7503C22.0833 27.3746 22.2326 27.0143 22.4983 26.7486C22.7639 26.4829 23.1243 26.3337 23.5 26.3337ZM9.92833 15.0003H22.905C22.3527 16.2614 21.4449 17.3342 20.2926 18.0875C19.1402 18.8408 17.7934 19.242 16.4167 19.242C15.04 19.242 13.6931 18.8408 12.5408 18.0875C11.3885 17.3342 10.4806 16.2614 9.92833 15.0003ZM12.7475 10.7503H14.1642C14.3767 9.12116 14.49 8.42699 12.875 6.55699C12.3083 5.84866 11.94 5.46616 12.2517 3.66699H10.8492C10.6798 4.41534 10.707 5.19477 10.9279 5.92954C11.1488 6.66431 11.556 7.32945 12.11 7.86033C12.4217 8.20033 13.2292 8.80949 12.7475 10.7503ZM16.2608 10.7503H17.6775C17.89 9.12116 18.0033 8.42699 16.4167 6.55699C15.8217 5.84866 15.4533 5.45199 15.765 3.66699H14.3625C14.1932 4.41534 14.2203 5.19477 14.4412 5.92954C14.6621 6.66431 15.0694 7.32945 15.6233 7.86033C15.9492 8.20033 16.7567 8.80949 16.2608 10.7503ZM19.8308 10.7503H21.2475C21.46 9.12116 21.5733 8.42699 19.9583 6.55699C19.3917 5.84866 19.0233 5.46616 19.335 3.66699H17.9325C17.7632 4.41534 17.7903 5.19477 18.0112 5.92954C18.2321 6.66431 18.6394 7.32945 19.1933 7.86033C19.505 8.20033 20.3125 8.80949 19.8308 10.7503Z" fill="#0F2664" stroke="#F6FAFF" stroke-width="0.4"/>
</svg>
