<svg width="34" height="34" viewBox="0 0 34 34" fill="none" xmlns="http://www.w3.org/2000/svg">
<path d="M24.082 14.1668V9.91683C24.082 9.16538 23.7835 8.44471 23.2522 7.91336C22.7208 7.38201 22.0001 7.0835 21.2487 7.0835H12.7487C11.1904 7.0835 9.91536 8.3585 9.91536 9.91683V14.1668C8.35703 14.1668 7.08203 15.4418 7.08203 17.0002V24.0835H8.9662L9.91536 26.9168H11.332L12.2812 24.0835H21.7162L22.6654 26.9168H24.082L25.0312 24.0835H26.9154V17.0002C26.9154 16.2487 26.6169 15.528 26.0855 14.9967C25.5541 14.4653 24.8335 14.1668 24.082 14.1668ZM12.7487 9.91683H21.2487V14.1668H12.7487M24.082 21.2502H9.91536V17.0002H24.082V21.2502Z" fill="#0F2664"/>
<path d="M12.7487 9.91683H21.2487V14.1668H12.7487M24.082 14.1668V9.91683C24.082 9.16538 23.7835 8.44471 23.2522 7.91336C22.7208 7.38201 22.0001 7.0835 21.2487 7.0835H12.7487C11.1904 7.0835 9.91536 8.3585 9.91536 9.91683V14.1668C8.35703 14.1668 7.08203 15.4418 7.08203 17.0002V24.0835H8.9662L9.91536 26.9168H11.332L12.2812 24.0835H21.7162L22.6654 26.9168H24.082L25.0312 24.0835H26.9154V17.0002C26.9154 16.2487 26.6169 15.528 26.0855 14.9967C25.5541 14.4653 24.8335 14.1668 24.082 14.1668ZM24.082 21.2502H9.91536V17.0002H24.082V21.2502Z" stroke="#F6FAFF" stroke-width="0.8"/>
</svg>
