<svg width="34" height="34" viewBox="0 0 34 34" fill="none" xmlns="http://www.w3.org/2000/svg">
<path d="M31.1654 17.0002C31.1654 15.4418 29.8904 14.1668 28.332 14.1668V9.91683C28.332 8.3585 27.057 7.0835 25.4987 7.0835H8.4987C6.94036 7.0835 5.66536 8.3585 5.66536 9.91683V14.1668C4.10703 14.1668 2.83203 15.4418 2.83203 17.0002V24.0835H4.7162L5.66536 26.9168H7.08203L8.0312 24.0835H25.9804L26.9154 26.9168H28.332L29.2812 24.0835H31.1654V17.0002ZM25.4987 14.1668H18.4154V9.91683H25.4987V14.1668ZM8.4987 9.91683H15.582V14.1668H8.4987V9.91683ZM5.66536 17.0002H28.332V21.2502H5.66536V17.0002Z" fill="#0F2664" stroke="#F6FAFF" stroke-width="0.7"/>
</svg>
