<svg width="24" height="26" viewBox="0 0 24 26" fill="none" xmlns="http://www.w3.org/2000/svg">
<path d="M10.5 13.291H12.5V19.791M1 8.79102H23M17 4.79102V0.791016M7 4.79102V0.791016M3 24.791H21C21.5304 24.791 22.0391 24.5803 22.4142 24.2052C22.7893 23.8302 23 23.3214 23 22.791V4.79102C23 4.26058 22.7893 3.75187 22.4142 3.3768C22.0391 3.00173 21.5304 2.79102 21 2.79102H3C2.46957 2.79102 1.96086 3.00173 1.58579 3.3768C1.21071 3.75187 1 4.26058 1 4.79102V22.791C1 23.3214 1.21071 23.8302 1.58579 24.2052C1.96086 24.5803 2.46957 24.791 3 24.791Z" stroke="#0F2664" stroke-width="1.5" stroke-linecap="round" stroke-linejoin="round"/>
</svg>
