<svg width="17" height="15" viewBox="0 0 17 15" fill="none" xmlns="http://www.w3.org/2000/svg">
<path d="M11.8125 8.73991C12.0114 8.73991 12.2022 8.66528 12.3428 8.53244C12.4835 8.3996 12.5625 8.21944 12.5625 8.03158C12.5625 7.84371 12.4835 7.66355 12.3428 7.53071C12.2022 7.39787 12.0114 7.32324 11.8125 7.32324C11.6136 7.32324 11.4228 7.39787 11.2822 7.53071C11.1415 7.66355 11.0625 7.84371 11.0625 8.03158C11.0625 8.21944 11.1415 8.3996 11.2822 8.53244C11.4228 8.66528 11.6136 8.73991 11.8125 8.73991ZM11.8125 11.5732C12.0114 11.5732 12.2022 11.4986 12.3428 11.3658C12.4835 11.2329 12.5625 11.0528 12.5625 10.8649C12.5625 10.677 12.4835 10.4969 12.3428 10.364C12.2022 10.2312 12.0114 10.1566 11.8125 10.1566C11.6136 10.1566 11.4228 10.2312 11.2822 10.364C11.1415 10.4969 11.0625 10.677 11.0625 10.8649C11.0625 11.0528 11.1415 11.2329 11.2822 11.3658C11.4228 11.4986 11.6136 11.5732 11.8125 11.5732ZM8.8125 8.03158C8.8125 8.21944 8.73348 8.3996 8.59283 8.53244C8.45218 8.66528 8.26141 8.73991 8.0625 8.73991C7.86359 8.73991 7.67282 8.66528 7.53217 8.53244C7.39152 8.3996 7.3125 8.21944 7.3125 8.03158C7.3125 7.84371 7.39152 7.66355 7.53217 7.53071C7.67282 7.39787 7.86359 7.32324 8.0625 7.32324C8.26141 7.32324 8.45218 7.39787 8.59283 7.53071C8.73348 7.66355 8.8125 7.84371 8.8125 8.03158ZM8.8125 10.8649C8.8125 11.0528 8.73348 11.2329 8.59283 11.3658C8.45218 11.4986 8.26141 11.5732 8.0625 11.5732C7.86359 11.5732 7.67282 11.4986 7.53217 11.3658C7.39152 11.2329 7.3125 11.0528 7.3125 10.8649C7.3125 10.677 7.39152 10.4969 7.53217 10.364C7.67282 10.2312 7.86359 10.1566 8.0625 10.1566C8.26141 10.1566 8.45218 10.2312 8.59283 10.364C8.73348 10.4969 8.8125 10.677 8.8125 10.8649ZM4.3125 8.73991C4.51141 8.73991 4.70218 8.66528 4.84283 8.53244C4.98348 8.3996 5.0625 8.21944 5.0625 8.03158C5.0625 7.84371 4.98348 7.66355 4.84283 7.53071C4.70218 7.39787 4.51141 7.32324 4.3125 7.32324C4.11359 7.32324 3.92282 7.39787 3.78217 7.53071C3.64152 7.66355 3.5625 7.84371 3.5625 8.03158C3.5625 8.21944 3.64152 8.3996 3.78217 8.53244C3.92282 8.66528 4.11359 8.73991 4.3125 8.73991ZM4.3125 11.5732C4.51141 11.5732 4.70218 11.4986 4.84283 11.3658C4.98348 11.2329 5.0625 11.0528 5.0625 10.8649C5.0625 10.677 4.98348 10.4969 4.84283 10.364C4.70218 10.2312 4.51141 10.1566 4.3125 10.1566C4.11359 10.1566 3.92282 10.2312 3.78217 10.364C3.64152 10.4969 3.5625 10.677 3.5625 10.8649C3.5625 11.0528 3.64152 11.2329 3.78217 11.3658C3.92282 11.4986 4.11359 11.5732 4.3125 11.5732Z" fill="#0F2664"/>
<path fill-rule="evenodd" clip-rule="evenodd" d="M4.3125 0.0625C4.46168 0.0625 4.60476 0.118471 4.71025 0.2181C4.81574 0.317728 4.875 0.452854 4.875 0.59375V1.13421C5.3715 1.125 5.91825 1.125 6.51975 1.125H9.6045C10.2067 1.125 10.7535 1.125 11.25 1.13421V0.59375C11.25 0.452854 11.3093 0.317728 11.4148 0.2181C11.5202 0.118471 11.6633 0.0625 11.8125 0.0625C11.9617 0.0625 12.1048 0.118471 12.2102 0.2181C12.3157 0.317728 12.375 0.452854 12.375 0.59375V1.17954C12.57 1.19371 12.7545 1.21142 12.9293 1.23338C13.8083 1.34529 14.52 1.58046 15.0817 2.11029C15.6427 2.64083 15.8918 3.31304 16.0103 4.14321C16.125 4.95071 16.125 5.98133 16.125 7.28325V8.77925C16.125 10.0812 16.125 11.1125 16.0103 11.9193C15.8918 12.7495 15.6427 13.4217 15.0817 13.9522C14.52 14.482 13.8083 14.7172 12.9293 14.8291C12.0743 14.9375 10.983 14.9375 9.6045 14.9375H6.5205C5.142 14.9375 4.05 14.9375 3.19575 14.8291C2.31675 14.7172 1.605 14.482 1.04325 13.9522C0.48225 13.4217 0.23325 12.7495 0.11475 11.9193C0 11.1118 0 10.0812 0 8.77925V7.28325C0 5.98133 0 4.95 0.11475 4.14321C0.23325 3.31304 0.48225 2.64083 1.04325 2.11029C1.605 1.58046 2.31675 1.34529 3.19575 1.23338C3.3705 1.21142 3.55575 1.19371 3.75 1.17954V0.59375C3.75 0.452854 3.80926 0.317728 3.91475 0.2181C4.02024 0.118471 4.16332 0.0625 4.3125 0.0625ZM3.345 2.28667C2.59125 2.38229 2.15625 2.56221 1.839 2.86183C1.52175 3.16146 1.33125 3.57229 1.23 4.28487C1.21275 4.40529 1.1985 4.53279 1.1865 4.66667H14.9385C14.9265 4.53208 14.9123 4.40529 14.895 4.28417C14.7938 3.57229 14.6033 3.16146 14.286 2.86183C13.9688 2.56221 13.5337 2.38229 12.7792 2.28667C12.009 2.18892 10.9928 2.1875 9.5625 2.1875H6.5625C5.13225 2.1875 4.11675 2.18892 3.345 2.28667ZM1.125 7.32292C1.125 6.718 1.125 6.19171 1.13475 5.72917H14.9902C15 6.19171 15 6.718 15 7.32292V8.73958C15 10.0904 14.9985 11.0502 14.895 11.7783C14.7938 12.4902 14.6033 12.901 14.286 13.2007C13.9688 13.5003 13.5337 13.6802 12.7792 13.7758C12.009 13.8736 10.9928 13.875 9.5625 13.875H6.5625C5.13225 13.875 4.11675 13.8736 3.345 13.7758C2.59125 13.6802 2.15625 13.5003 1.839 13.2007C1.52175 12.901 1.33125 12.4902 1.23 11.7776C1.1265 11.0502 1.125 10.0904 1.125 8.73958V7.32292Z" fill="#0F2664"/>
</svg>
