<svg width="17" height="15" viewBox="0 0 17 15" fill="none" xmlns="http://www.w3.org/2000/svg">
<path fill-rule="evenodd" clip-rule="evenodd" d="M4.3125 0.0625C4.46168 0.0625 4.60476 0.118471 4.71025 0.2181C4.81574 0.317728 4.875 0.452854 4.875 0.59375V1.13421C5.3715 1.125 5.91825 1.125 6.51975 1.125H9.6045C10.2067 1.125 10.7535 1.125 11.25 1.13421V0.59375C11.25 0.452854 11.3093 0.317728 11.4148 0.2181C11.5202 0.118471 11.6633 0.0625 11.8125 0.0625C11.9617 0.0625 12.1048 0.118471 12.2102 0.2181C12.3157 0.317728 12.375 0.452854 12.375 0.59375V1.17954C12.57 1.19371 12.7545 1.21142 12.9293 1.23338C13.8083 1.34529 14.52 1.58046 15.0817 2.11029C15.6427 2.64083 15.8918 3.31304 16.0103 4.14321C16.125 4.95071 16.125 5.98133 16.125 7.28325V8.77925C16.125 10.0812 16.125 11.1125 16.0103 11.9193C15.8918 12.7495 15.6427 13.4217 15.0817 13.9522C14.52 14.482 13.8083 14.7172 12.9293 14.8291C12.0743 14.9375 10.983 14.9375 9.6045 14.9375H6.5205C5.142 14.9375 4.05 14.9375 3.19575 14.8291C2.31675 14.7172 1.605 14.482 1.04325 13.9522C0.48225 13.4217 0.23325 12.7495 0.11475 11.9193C0 11.1118 0 10.0812 0 8.77925V7.28325C0 5.98133 0 4.95 0.11475 4.14321C0.23325 3.31304 0.48225 2.64083 1.04325 2.11029C1.605 1.58046 2.31675 1.34529 3.19575 1.23338C3.3705 1.21142 3.55575 1.19371 3.75 1.17954V0.59375C3.75 0.452854 3.80926 0.317728 3.91475 0.2181C4.02024 0.118471 4.16332 0.0625 4.3125 0.0625ZM3.345 2.28667C2.59125 2.38229 2.15625 2.56221 1.839 2.86183C1.52175 3.16146 1.33125 3.57229 1.23 4.28487C1.21275 4.40529 1.1985 4.53279 1.1865 4.66667H14.9385C14.9265 4.53208 14.9123 4.40529 14.895 4.28417C14.7938 3.57229 14.6033 3.16146 14.286 2.86183C13.9688 2.56221 13.5337 2.38229 12.7792 2.28667C12.009 2.18892 10.9928 2.1875 9.5625 2.1875H6.5625C5.13225 2.1875 4.11675 2.18892 3.345 2.28667ZM1.125 7.32292C1.125 6.718 1.125 6.19171 1.13475 5.72917H14.9902C15 6.19171 15 6.718 15 7.32292V8.73958C15 10.0904 14.9985 11.0502 14.895 11.7783C14.7938 12.4902 14.6033 12.901 14.286 13.2007C13.9688 13.5003 13.5337 13.6802 12.7792 13.7758C12.009 13.8736 10.9928 13.875 9.5625 13.875H6.5625C5.13225 13.875 4.11675 13.8736 3.345 13.7758C2.59125 13.6802 2.15625 13.5003 1.839 13.2007C1.52175 12.901 1.33125 12.4902 1.23 11.7776C1.1265 11.0502 1.125 10.0904 1.125 8.73958V7.32292Z" fill="#696F79"/>
</svg>
