<svg width="37" height="33" viewBox="0 0 37 33" fill="none" xmlns="http://www.w3.org/2000/svg">
<path d="M22.3338 21.0399C21.8688 20.3295 21.4942 19.6707 21.1455 19.0637C19.6342 16.4674 18.4071 14.7107 14.8034 14.1682V8.18783C14.8034 5.69491 12.7755 3.66699 10.2826 3.66699C7.78964 3.66699 5.76172 5.69491 5.76172 8.18783V29.5003H8.34505V26.917H12.2201V29.5003H14.8034V16.7903C17.0767 17.2295 17.7613 18.3791 18.898 20.3553C19.2726 21.0141 19.6859 21.7116 20.1896 22.4737C23.083 26.8137 26.0021 29.5003 31.5951 29.5003V26.917C27.113 26.917 24.8784 24.8503 22.3338 21.0399ZM10.2826 6.25033C11.3546 6.25033 12.2201 7.11574 12.2201 8.18783V14.0003H8.34505V8.18783C8.34505 7.11574 9.21047 6.25033 10.2826 6.25033ZM8.34505 24.3337V21.7503H12.2201V24.3337H8.34505ZM12.2201 19.167H8.34505V16.5837H12.2201V19.167Z" fill="#0F2664" stroke="#F6FAFF" stroke-width="0.4"/>
</svg>
