<svg width="34" height="35" viewBox="0 0 34 35" fill="none" xmlns="http://www.w3.org/2000/svg">
<path d="M22.4167 9.33366V17.8337C22.4167 19.392 23.6917 20.667 25.25 20.667H26.6667V30.5837C26.6667 31.3628 27.3042 32.0003 28.0833 32.0003C28.8625 32.0003 29.5 31.3628 29.5 30.5837V5.26783C29.5 4.34699 28.6358 3.66699 27.7433 3.87949C24.6833 4.63033 22.4167 7.22283 22.4167 9.33366ZM15.3333 13.5837H12.5V5.08366C12.5 4.30449 11.8625 3.66699 11.0833 3.66699C10.3042 3.66699 9.66667 4.30449 9.66667 5.08366V13.5837H6.83333V5.08366C6.83333 4.30449 6.19583 3.66699 5.41667 3.66699C4.6375 3.66699 4 4.30449 4 5.08366V13.5837C4 16.7145 6.53583 19.2503 9.66667 19.2503V30.5837C9.66667 31.3628 10.3042 32.0003 11.0833 32.0003C11.8625 32.0003 12.5 31.3628 12.5 30.5837V19.2503C15.6308 19.2503 18.1667 16.7145 18.1667 13.5837V5.08366C18.1667 4.30449 17.5292 3.66699 16.75 3.66699C15.9708 3.66699 15.3333 4.30449 15.3333 5.08366V13.5837Z" fill="#0F2664" stroke="#F6FAFF" stroke-width="0.9"/>
</svg>
