<svg width="36" height="34" viewBox="0 0 36 34" fill="none" xmlns="http://www.w3.org/2000/svg">
<path d="M14.4355 21.7083L24.3522 15.3333L14.4355 8.95833V21.7083ZM12.3105 29.5V26.6667H6.64388C5.86471 26.6667 5.19794 26.3895 4.64355 25.8351C4.08821 25.2797 3.81055 24.6125 3.81055 23.8333V6.83333C3.81055 6.05417 4.08821 5.38692 4.64355 4.83158C5.19794 4.27719 5.86471 4 6.64388 4H29.3105C30.0897 4 30.757 4.27719 31.3123 4.83158C31.8667 5.38692 32.1439 6.05417 32.1439 6.83333V23.8333C32.1439 24.6125 31.8667 25.2797 31.3123 25.8351C30.757 26.3895 30.0897 26.6667 29.3105 26.6667H23.6439V29.5H12.3105ZM6.64388 23.8333H29.3105V6.83333H6.64388V23.8333Z" fill="#0F2664" stroke="#F6FAFF" stroke-width="0.5"/>
</svg>
