<svg width="35" height="35" viewBox="0 0 35 35" fill="none" xmlns="http://www.w3.org/2000/svg">
<path d="M23.9651 11.0434L23.9652 11.0435C26.1178 11.8374 28.074 12.9447 29.8319 14.3654C30.2322 14.6853 30.6639 14.8282 31.1417 14.8087C31.6214 14.7891 32.0154 14.6169 32.3442 14.288C32.6973 13.9349 32.8565 13.5424 32.8477 13.0919C32.8378 12.6386 32.6693 12.2725 32.3297 11.969C30.2643 10.2293 27.9436 8.86571 25.3654 7.87808C22.7929 6.89357 20.0437 6.4 17.1146 6.4C14.1855 6.4 11.4364 6.89356 8.86392 7.87803L23.9651 11.0434ZM23.9651 11.0434C21.805 10.2472 19.5206 9.85 17.1146 9.85M23.9651 11.0434L17.1146 9.85M3.08888 14.8087L3.08891 14.8087C3.56557 14.8281 3.99683 14.6854 4.39726 14.3654C6.15516 12.9447 8.11184 11.8373 10.2654 11.0435L3.08888 14.8087ZM3.08888 14.8087C2.608 14.7891 2.21367 14.6167 1.88493 14.288C1.56021 13.9633 1.4 13.5756 1.4 13.1003C1.4 12.6362 1.56401 12.2688 1.89949 11.969M3.08888 14.8087L3.07258 15.2083C2.49364 15.1847 2.00347 14.9722 1.60208 14.5708C1.20069 14.1694 1 13.6793 1 13.1003C1 12.5223 1.2125 12.0444 1.6375 11.6667M1.6375 11.6667L1.89526 11.9725C1.89667 11.9714 1.89808 11.9702 1.89949 11.969M1.6375 11.6667L1.90325 11.9656C1.90199 11.9667 1.90074 11.9679 1.89949 11.969M1.6375 11.6667L1.89949 11.969M1.89949 11.969C3.96487 10.2293 6.28561 8.8657 8.8638 7.87808L1.89949 11.969ZM17.1146 9.85C14.7086 9.85 12.4246 10.2472 10.2655 11.0434L17.1146 9.85ZM7.96645 17.9741L7.96648 17.9742L7.97193 17.97C9.23574 17.0049 10.6444 16.2512 12.1999 15.7094C13.7488 15.1704 15.3863 14.9 17.1146 14.9C18.8662 14.9 20.515 15.1764 22.0636 15.7269C23.6174 16.2795 25.0252 17.0499 26.289 18.038L26.2889 18.0382L26.2981 18.0449C26.6422 18.2985 26.817 18.6349 26.8268 19.0952C26.8359 19.5596 26.6749 19.9574 26.3234 20.3088C25.9965 20.6357 25.6058 20.8021 25.1289 20.8123C24.6353 20.8218 24.1787 20.6877 23.7497 20.4024C22.7968 19.7431 21.7646 19.2366 20.6544 18.8831C19.5378 18.527 18.3571 18.35 17.1146 18.35C15.8706 18.35 14.6891 18.533 13.5723 18.9014C12.4634 19.2668 11.4434 19.7671 10.514 20.403C10.0613 20.7116 9.59947 20.8419 9.11792 20.8129C8.63409 20.7829 8.23649 20.6041 7.90576 20.2734C7.55814 19.9258 7.40145 19.5259 7.42051 19.0493C7.43961 18.572 7.62221 18.2278 7.96645 17.9741ZM17.1146 28.2667C16.4125 28.2667 15.843 28.0336 15.3787 27.5692C14.9143 27.1049 14.6812 26.5354 14.6812 25.8333C14.6812 25.1313 14.9143 24.5618 15.3787 24.0974C15.843 23.6331 16.4125 23.4 17.1146 23.4C17.8166 23.4 18.3862 23.6331 18.8505 24.0974C19.3148 24.5618 19.5479 25.1313 19.5479 25.8333C19.5479 26.5354 19.3148 27.1049 18.8505 27.5692C18.3862 28.0336 17.8166 28.2667 17.1146 28.2667Z" fill="#0F2664" stroke="#F6FAFF" stroke-width="0.8"/>
<!-- <path d="M58.6694 24.333C58.4894 23.697 58.2944 23.016 58.0844 22.29C57.8744 21.564 57.6794 20.892 57.4994 20.274L56.3474 16.26C56.1434 15.546 55.9184 14.763 55.6724 13.911C55.4264 13.053 55.1954 12.249 54.9794 11.499H56.7794C57.0314 12.417 57.2924 13.383 57.5624 14.397C57.8324 15.411 58.0904 16.377 58.3364 17.295L59.7134 22.407H59.8664L61.2074 17.232C61.3634 16.638 61.5254 16.014 61.6934 15.36C61.8674 14.7 62.0384 14.043 62.2064 13.389C62.3804 12.729 62.5454 12.099 62.7014 11.499H64.5914C64.8314 12.417 65.0834 13.374 65.3474 14.37C65.6114 15.36 65.8664 16.32 66.1124 17.25L67.4804 22.407H67.6334L69.0284 17.223C69.2684 16.329 69.5234 15.375 69.7934 14.361C70.0634 13.347 70.3184 12.393 70.5584 11.499H72.3674C72.1454 12.261 71.9114 13.062 71.6654 13.902C71.4254 14.742 71.2004 15.516 70.9904 16.224L69.8204 20.274C69.6344 20.916 69.4364 21.6 69.2264 22.326C69.0224 23.046 68.8274 23.715 68.6414 24.333H66.5534C66.3134 23.451 66.0584 22.521 65.7884 21.543C65.5244 20.565 65.2754 19.647 65.0414 18.789L63.6734 13.785H63.5114L62.1704 18.789C61.9424 19.653 61.6964 20.577 61.4324 21.561C61.1684 22.545 60.9194 23.469 60.6854 24.333H58.6694ZM74.4019 24.333C74.4019 23.667 74.4019 23.028 74.4019 22.416C74.4019 21.804 74.4019 21.129 74.4019 20.391V19.491C74.4019 18.957 74.4019 18.465 74.4019 18.015C74.4019 17.559 74.4019 17.121 74.4019 16.701C74.4019 16.275 74.4019 15.843 74.4019 15.405L75.8959 15.351C75.8959 15.795 75.8959 16.233 75.8959 16.665C75.8959 17.091 75.8959 17.535 75.8959 17.997C75.8959 18.453 75.8959 18.951 75.8959 19.491V20.391C75.8959 21.129 75.8959 21.804 75.8959 22.416C75.8959 23.028 75.8959 23.667 75.8959 24.333H74.4019ZM75.1219 13.344C74.7979 13.344 74.5339 13.254 74.3299 13.074C74.1259 12.894 74.0239 12.618 74.0239 12.246C74.0239 11.88 74.1259 11.607 74.3299 11.427C74.5339 11.241 74.8039 11.148 75.1399 11.148C75.4699 11.148 75.7339 11.244 75.9319 11.436C76.1299 11.622 76.2289 11.892 76.2289 12.246C76.2289 12.618 76.1299 12.894 75.9319 13.074C75.7339 13.254 75.4639 13.344 75.1219 13.344ZM78.575 19.644V18.312C79.067 18.312 79.538 18.312 79.988 18.312C80.444 18.312 80.87 18.312 81.266 18.312C81.662 18.312 82.088 18.312 82.544 18.312C83 18.312 83.471 18.312 83.957 18.312V19.644C83.471 19.644 83 19.644 82.544 19.644C82.088 19.644 81.662 19.644 81.266 19.644C80.87 19.644 80.444 19.644 79.988 19.644C79.538 19.644 79.067 19.644 78.575 19.644ZM86.7353 24.333C86.7353 23.619 86.7353 22.932 86.7353 22.272C86.7353 21.612 86.7353 20.886 86.7353 20.094V15.792C86.7353 14.982 86.7353 14.244 86.7353 13.578C86.7353 12.906 86.7353 12.213 86.7353 11.499H94.5563V12.903C93.9563 12.903 93.3113 12.903 92.6213 12.903C91.9373 12.903 91.1303 12.903 90.2003 12.903H87.6443L88.3373 11.733C88.3373 12.453 88.3373 13.149 88.3373 13.821C88.3373 14.487 88.3373 15.222 88.3373 16.026V20.094C88.3373 20.886 88.3373 21.612 88.3373 22.272C88.3373 22.932 88.3373 23.619 88.3373 24.333H86.7353ZM87.9503 18.591V17.232H90.3173C91.1453 17.232 91.8593 17.232 92.4593 17.232C93.0593 17.232 93.6383 17.232 94.1963 17.232V18.591C93.6023 18.591 93.0053 18.591 92.4053 18.591C91.8113 18.591 91.1093 18.591 90.2993 18.591H87.9503ZM96.9547 24.333C96.9547 23.667 96.9547 23.028 96.9547 22.416C96.9547 21.804 96.9547 21.129 96.9547 20.391V19.491C96.9547 18.957 96.9547 18.465 96.9547 18.015C96.9547 17.559 96.9547 17.121 96.9547 16.701C96.9547 16.275 96.9547 15.843 96.9547 15.405L98.4487 15.351C98.4487 15.795 98.4487 16.233 98.4487 16.665C98.4487 17.091 98.4487 17.535 98.4487 17.997C98.4487 18.453 98.4487 18.951 98.4487 19.491V20.391C98.4487 21.129 98.4487 21.804 98.4487 22.416C98.4487 23.028 98.4487 23.667 98.4487 24.333H96.9547ZM97.6747 13.344C97.3507 13.344 97.0867 13.254 96.8827 13.074C96.6787 12.894 96.5767 12.618 96.5767 12.246C96.5767 11.88 96.6787 11.607 96.8827 11.427C97.0867 11.241 97.3567 11.148 97.6927 11.148C98.0227 11.148 98.2867 11.244 98.4847 11.436C98.6827 11.622 98.7817 11.892 98.7817 12.246C98.7817 12.618 98.6827 12.894 98.4847 13.074C98.2867 13.254 98.0167 13.344 97.6747 13.344Z" fill="#0F2664"/> -->
</svg>
